<svg width="1200" height="630" viewBox="0 0 1200 630" fill="none" xmlns="http://www.w3.org/2000/svg">
	<rect width="1200" height="630" fill="#0a0b0f"/>
	
	<defs>
		<linearGradient id="logo-grad" x1="0" y1="0" x2="120" y2="120">
			<stop stop-color="#6366f1"/>
			<stop offset="1" stop-color="#a855f7"/>
		</linearGradient>
		<linearGradient id="text-grad" x1="0" y1="0" x2="800" y2="0">
			<stop stop-color="#6366f1"/>
			<stop offset="1" stop-color="#a855f7"/>
		</linearGradient>
	</defs>
	
	<rect x="80" y="255" width="120" height="120" rx="24" fill="url(#logo-grad)"/>
	<path d="M105 335L135 275L165 315L195 255L215 295" stroke="white" stroke-width="8" stroke-linecap="round" stroke-linejoin="round"/>
	
	<text x="230" y="305" fill="white" font-family="system-ui, -apple-system, sans-serif" font-size="48" font-weight="700">AI Model Benchmarks</text>
	<text x="230" y="365" fill="#94a3b8" font-family="system-ui, -apple-system, sans-serif" font-size="28" font-weight="500">Daily LLM Evaluation &amp; Comparison</text>
	
	<rect x="850" y="220" width="280" height="190" rx="12" fill="#1a1b23" stroke="#2a2b35" stroke-width="1"/>
	<text x="875" y="260" fill="#94a3b8" font-family="system-ui, -apple-system, sans-serif" font-size="14" font-weight="500">TOP MODELS</text>
	
	<rect x="875" y="280" width="240" height="24" rx="4" fill="#6366f1"/>
	<text x="885" y="298" fill="white" font-family="system-ui, -apple-system, sans-serif" font-size="12" font-weight="600">Claude 4 Opus</text>
	<text x="1100" y="298" fill="white" font-family="system-ui, -apple-system, sans-serif" font-size="12" font-weight="700" text-anchor="end">95</text>
	
	<rect x="875" y="312" width="220" height="24" rx="4" fill="#8b5cf6"/>
	<text x="885" y="330" fill="white" font-family="system-ui, -apple-system, sans-serif" font-size="12" font-weight="600">GPT-4.5</text>
	<text x="1080" y="330" fill="white" font-family="system-ui, -apple-system, sans-serif" font-size="12" font-weight="700" text-anchor="end">93</text>
	
	<rect x="875" y="344" width="200" height="24" rx="4" fill="#a855f7"/>
	<text x="885" y="362" fill="white" font-family="system-ui, -apple-system, sans-serif" font-size="12" font-weight="600">Gemini 2.5 Pro</text>
	<text x="1060" y="362" fill="white" font-family="system-ui, -apple-system, sans-serif" font-size="12" font-weight="700" text-anchor="end">91</text>
	
	<text x="80" y="550" fill="#64748b" font-family="system-ui, -apple-system, sans-serif" font-size="18">aimodelbenchmarks.com</text>
</svg>
